# xmcd
#
# Track frame offsets: 
#        182
#        20955
#        34447
#        54085
#        66127
#        81990
#        95530
#        109982
#        123655
#        144137
#        166130
#
# Disc length: 2378 seconds
#
# Revision: 2
# Processed by: cddbd v1.5.2PL0 Copyright (c) Steve Scherf et al.
# Submitted via: ExactAudioCopy v1.0b1
#
DISCID=9609480b
DTITLE=Morton Downey Jr. - Morton Downey Jr. Sings
DYEAR=1989
DGENRE=Pop
TTITLE0=Blue Collar King
TTITLE1=Operate Operate
TTITLE2=Old Man
TTITLE3=Hey Mr. Dealer
TTITLE4=Mr. Yuppie's Birthday Party
TTITLE5=Last American Hero
TTITLE6=Senator Paperman
TTITLE7=Lawyer Named Sue
TTITLE8=Lady Of The Night
TTITLE9=Solution To Pollution
TTITLE10=Zip It
EXTD=
EXTT0=
EXTT1=
EXTT2=
EXTT3=
EXTT4=
EXTT5=
EXTT6=
EXTT7=
EXTT8=
EXTT9=
EXTT10=
PLAYORDER=
